<?xml version="1.0" encoding="UTF-8"?>
<!DOCTYPE svg PUBLIC "-//W3C//DTD SVG 1.1//EN" "http://www.w3.org/Graphics/SVG/1.1/DTD/svg11.dtd">
<!-- Creator: CorelDRAW -->
<svg xmlns="http://www.w3.org/2000/svg" xml:space="preserve" width="150mm" height="150mm" version="1.1" style="shape-rendering:geometricPrecision; text-rendering:geometricPrecision; image-rendering:optimizeQuality; fill-rule:evenodd; clip-rule:evenodd"
viewBox="0 0 3614.24 3614.24"
 xmlns:xlink="http://www.w3.org/1999/xlink"
 xmlns:xodm="http://www.corel.com/coreldraw/odm/2003">
 <defs>
  <style type="text/css">
   <![CDATA[
    .fil2 {fill:none}
    .fil1 {fill:#FEFEFE}
    .fil0 {fill:black}
   ]]>
  </style>
   <clipPath id="id0">
    <path d="M3614.24 3614.24l-3614.24 0 0 -3614.24 3614.24 0 0 3614.24z"/>
   </clipPath>
 </defs>
 <g id="Camada_x0020_1">
  <metadata id="CorelCorpID_0Corel-Layer"/>
  <polygon class="fil0" points="3614.24,3614.24 -0,3614.24 -0,0 3614.24,0 "/>
  <g style="clip-path:url(#id0)">
   <g id="_2091826014256">
    <path id="_1" class="fil1" d="M3260.82 2954.83c798.43,-813.98 1113.86,-1191.56 -1163.12,-424.1 2293.78,-1131.42 1692.15,-1121.24 -93.37,-2906.86 697.97,1320.17 753.74,1760.8 -1601.65,44.66 1938.53,1716.15 1739.96,1758.3 -1452.97,1231.2 2831.71,679.54 2669.06,789.85 598.8,1760.79 1797.08,-698.35 1686.54,-536.06 879.3,382.06 654.46,-557.68 654.46,-287.61 730.84,-107.4 229.18,540.65 765.68,920.01 1390.98,920.01 416.87,0 794.28,-168.6 1067.46,-441.19 136.59,-136.3 442.15,-857.17 -356.28,-459.16zm-733.23 -115.49l0 0c-26,218.73 -280.97,368.36 -569.5,334.21 -288.52,-34.15 -501.34,-239.15 -475.34,-457.87 26,-218.73 1070.85,-95.07 1044.84,123.66z"/>
   </g>
  </g>
  <polygon class="fil2" points="3614.24,3614.24 -0,3614.24 -0,0 3614.24,0 "/>
 </g>
</svg>
